# xmcd
#
# Track frame offsets: 
#        150
#        14714
#        32494
#        53487
#        69185
#        85034
#        98082
#        117630
#        135530
#        151704
#        168267
#        185843
#
# Disc length: 2700 seconds
#
# Revision: 0
# Processed by: cddbd v1.5.2PL0 Copyright (c) Steve Scherf et al.
# Submitted via: ExactAudioCopyFreeDBPlugin 1.0
#
DISCID=900a8a0c
DTITLE=Tamia - Passion Like Fire
DYEAR=2018
DGENRE=Soul
TTITLE0=If I Had to Choose
TTITLE1=Leave It Smokin'
TTITLE2=It's yours
TTITLE3=Lost in You
TTITLE4=Today I Do
TTITLE5=When the Sun Comes Up
TTITLE6=Tell Me How
TTITLE7=Deeper
TTITLE8=Say
TTITLE9=Not For Long
TTITLE10=Better
TTITLE11=You Are Loved
EXTD=
EXTT0=
EXTT1=
EXTT2=
EXTT3=
EXTT4=
EXTT5=
EXTT6=
EXTT7=
EXTT8=
EXTT9=
EXTT10=
EXTT11=
PLAYORDER=
